<svg height='300px' width='300px'  fill="#ffffff" xmlns="http://www.w3.org/2000/svg" xmlns:xlink="http://www.w3.org/1999/xlink" version="1.1" x="0px" y="0px" viewBox="-63 313 512 512" style="enable-background:new -63 313 512 512;" xml:space="preserve"><g><path d="M163.9,571.5l63.7,47.8l31.9-15.9l63.7,38.2v25.5H132v-63.7L163.9,571.5z"></path><path d="M323.3,563.5c0,13.2-10.7,23.9-23.9,23.9c-13.2,0-23.9-10.7-23.9-23.9c0-13.2,10.7-23.9,23.9-23.9   C312.6,539.6,323.3,550.3,323.3,563.5z"></path><g><path d="M63,407.2h42.7v170.7H63L63,407.2L63,407.2z"></path><path d="M-1,471.2h170.7v42.7H-1V471.2L-1,471.2z"></path></g><path d="M355.2,475.9H206.3v31.9h148.9V699h-255v-84.1H68.3V699c0,17.5,14.3,31.9,31.9,31.9h255c17.5,0,31.9-14.3,31.9-31.9V507.7   C387,490.2,372.7,475.9,355.2,475.9z"></path></g></svg>